<?xml version="1.0" encoding="UTF-8" standalone="no"?>
<!-- Created with Inkscape (http://www.inkscape.org/) -->

<svg
   xmlns:dc="http://purl.org/dc/elements/1.1/"
   xmlns:cc="http://creativecommons.org/ns#"
   xmlns:rdf="http://www.w3.org/1999/02/22-rdf-syntax-ns#"
   xmlns:svg="http://www.w3.org/2000/svg"
   xmlns="http://www.w3.org/2000/svg"
   xmlns:sodipodi="http://sodipodi.sourceforge.net/DTD/sodipodi-0.dtd"
   xmlns:inkscape="http://www.inkscape.org/namespaces/inkscape"
   width="255.99998"
   height="255.99998"
   viewBox="0 0 67.73333 67.73333"
   version="1.1"
   id="svg1"
   xml:space="preserve"
   inkscape:version="0.92.5 (2060ec1f9f, 2020-04-08)"
   sodipodi:docname="ccornix-avatar.svg"
   inkscape:export-filename="ccornix-avatar.png"
   inkscape:export-xdpi="96"
   inkscape:export-ydpi="96"><sodipodi:namedview
     id="namedview1"
     pagecolor="#ffffff"
     bordercolor="#000000"
     borderopacity="0.25"
     inkscape:showpageshadow="2"
     inkscape:pageopacity="0.0"
     inkscape:pagecheckerboard="true"
     inkscape:deskcolor="#d1d1d1"
     inkscape:document-units="px"
     inkscape:zoom="1"
     inkscape:cx="-38.5"
     inkscape:cy="237.5"
     inkscape:window-width="1920"
     inkscape:window-height="1017"
     inkscape:window-x="1912"
     inkscape:window-y="-8"
     inkscape:window-maximized="1"
     inkscape:current-layer="layer1"
     showgrid="false" /><defs
     id="defs1" /><g
     inkscape:label="Layer 1"
     inkscape:groupmode="layer"
     id="layer1"
     transform="translate(-60.263582,-97.465212)"><g
       id="g835"><circle
         style="fill:#b2b2b2;fill-opacity:1;stroke-width:0.256962"
         id="path3"
         cx="94.130249"
         cy="131.33188"
         r="33.866665" /><path
         id="path2"
         style="fill:#222222;fill-opacity:1;stroke-width:0.256962"
         d="m 78.377779,109.28458 c -0.02447,0.002 -0.04798,0.0149 -0.0743,0.0366 -0.09935,0.0825 -0.116389,0.24394 -0.0843,0.80652 0.03195,0.56036 0.103112,0.86069 0.3493,1.47603 0.290854,0.72696 0.836764,1.74014 1.132241,2.10238 0.07274,0.0892 0.321699,0.40265 0.553582,0.69662 0.231873,0.29397 0.558127,0.68313 0.725212,0.86472 0.824701,0.89637 0.748181,0.92855 -0.277034,0.11545 -0.40393,-0.32036 -1.646644,-1.50902 -2.761345,-2.64139 -1.177207,-1.19589 -2.064784,-2.03555 -2.117432,-2.00301 -0.231718,0.14321 9.71e-4,1.18737 0.430609,1.93174 0.459036,0.79545 1.499887,1.9476 3.041399,3.36711 0.214984,0.19798 0.375397,0.37543 0.356332,0.39447 -0.06653,0.0665 -0.710702,-0.32787 -2.629854,-1.61103 -2.682601,-1.79364 -2.769368,-1.83545 -2.769368,-1.34354 0,0.61388 1.518884,2.4189 2.785936,3.31091 1.509453,1.06267 1.399067,1.06599 -1.499624,0.0467 -0.717297,-0.25224 -1.372165,-0.45822 -1.45494,-0.45822 -0.637203,0 0.05924,0.98556 1.423327,2.01454 0.299779,0.22612 0.546939,0.45081 0.549561,0.49937 0.0029,0.0486 -0.129946,0.12226 -0.295107,0.16412 -0.458541,0.11631 -0.518551,0.2883 -0.229358,0.65897 0.13286,0.1703 0.436737,0.56549 0.67502,0.87828 l 0.433125,0.56864 -0.207273,0.16311 c -0.113921,0.0896 -0.206777,0.23115 -0.206777,0.31468 0,0.0835 0.219218,0.52353 0.487327,0.97765 0.434348,0.73572 0.478479,0.85053 0.404017,1.05495 -0.07313,0.20076 -0.03749,0.30996 0.286571,0.87327 0.203699,0.35405 0.435106,0.71489 0.513919,0.80201 0.120253,0.13289 0.127217,0.19273 0.04467,0.3739 -0.141834,0.31127 0.06672,0.87793 0.511413,1.38869 0.337656,0.38787 0.351398,0.42215 0.254958,0.65546 -0.123876,0.29966 -0.04506,0.48047 0.505391,1.15633 0.348553,0.42794 0.368521,0.47764 0.286066,0.71417 -0.100965,0.28965 -0.02632,0.44976 0.398492,0.85069 0.190695,0.17998 0.253958,0.31138 0.253958,0.53049 0,0.23627 0.06604,0.35439 0.349301,0.62233 0.192209,0.18182 0.488376,0.43172 0.657966,0.55558 0.254852,0.18612 0.308161,0.27519 0.308161,0.51343 0,0.35725 0.271265,0.62501 1.025341,1.01178 0.29267,0.15011 0.552242,0.33708 0.577153,0.41556 0.02486,0.0785 0.137327,0.1843 0.249442,0.23538 0.216305,0.0986 0.779414,0.90686 0.779414,1.11869 0,0.0691 -0.08294,0.14409 -0.184692,0.16663 -0.101752,0.0225 -0.52771,0.11587 -0.946043,0.20727 -3.164615,0.69162 -4.28556,0.98057 -4.602238,1.18544 -0.277598,0.17959 -0.516434,0.57315 -0.516434,0.85119 0,0.0879 -0.074,0.22709 -0.164618,0.30916 -0.26032,0.23558 -0.360168,0.72713 -0.207778,1.02182 0.06934,0.13417 0.125809,0.40329 0.125974,0.59774 1.85e-4,0.21486 0.06886,0.46533 0.17465,0.63889 0.140834,0.23102 0.177351,0.43532 0.190714,1.069 0.02797,1.32371 0.06857,1.44062 0.735254,2.11794 0.732011,0.74367 0.889723,0.78585 1.65219,0.44015 0.307374,-0.13937 0.572938,-0.25345 0.590216,-0.25345 0.01729,0 -0.05031,0.1571 -0.150565,0.3493 -0.129839,0.24896 -0.183595,0.49931 -0.186702,0.86976 -0.0039,0.49781 0.0087,0.53187 0.302634,0.8015 0.16893,0.15492 0.373658,0.28205 0.45521,0.28205 0.08158,0 0.293845,0.0737 0.471263,0.16412 0.177409,0.0904 0.477324,0.16461 0.666999,0.16461 0.275829,0 0.416322,0.0596 0.701126,0.29762 0.343289,0.28685 0.373435,0.29539 0.837132,0.24693 0.264525,-0.0277 0.585069,-0.11183 0.712674,-0.18719 0.194783,-0.11509 0.271139,-0.12093 0.47578,-0.0361 0.499855,0.20705 1.020883,-0.20611 1.440391,-1.14329 0.111348,-0.24875 0.314581,-0.69323 0.451694,-0.98719 0.325166,-0.69713 0.944809,-2.15787 1.447423,-3.41228 0.206214,-0.51467 0.302819,-0.66347 0.444662,-0.68406 0.138561,-0.0201 0.181177,0.0151 0.181177,0.14955 0,0.24476 0.466417,0.89861 0.706147,0.98971 0.124508,0.0473 0.198746,0.14078 0.198746,0.25144 0,0.0969 0.129402,0.39024 0.288076,0.65144 0.158675,0.26121 0.380243,0.68113 0.491844,0.9335 0.20735,0.46886 0.270051,0.51265 0.815552,0.56412 0.20872,0.0197 0.256202,0.076 0.376912,0.44767 0.227901,0.70172 0.360605,0.84919 0.764866,0.84919 0.340055,0 0.356225,0.0123 0.609785,0.47277 0.407582,0.74018 0.533779,0.84264 1.039394,0.84264 0.472177,0 0.604842,0.0822 0.950559,0.58821 0.287979,0.42157 0.677021,0.66631 0.950063,0.59774 0.182498,-0.0458 0.274674,-0.004 0.523456,0.2389 0.358556,0.34937 0.796663,0.54724 1.224591,0.55306 0.22457,0.003 0.436281,0.0935 0.762856,0.32472 0.966885,0.68455 1.102259,0.74859 1.378159,0.65244 0.22816,-0.0795 0.29466,-0.0586 0.69109,0.21832 0.24134,0.16858 0.56743,0.41155 0.72472,0.54001 0.28389,0.23186 0.68523,0.30968 0.78294,0.15158 0.11183,-0.18096 0.35735,-0.0536 0.94604,0.49083 0.71486,0.66112 1.02329,0.81653 1.15031,0.57918 0.0455,-0.0851 0.0828,-0.20858 0.0828,-0.27453 0,-0.17327 0.26325,-0.25225 0.34629,-0.10388 0.0378,0.0674 0.11587,0.1706 0.17365,0.22936 0.0578,0.0588 0.25145,0.34524 0.43011,0.63638 0.17866,0.29115 0.48157,0.68877 0.67353,0.88381 0.22713,0.23079 0.42097,0.35483 0.55507,0.35483 0.1841,0 0.20628,-0.0335 0.20628,-0.31568 0,-0.17367 -0.0765,-0.6084 -0.17014,-0.96613 -0.0936,-0.35772 -0.18332,-0.72463 -0.19925,-0.81505 -0.0159,-0.0904 -0.10583,-0.4722 -0.19974,-0.84817 -0.20294,-0.81203 -0.19915,-0.75533 -0.0558,-0.75533 0.0635,0 0.22758,0.19828 0.36436,0.44065 0.76884,1.36232 1.98218,2.81113 2.62032,3.12872 0.29879,0.14867 0.64749,0.17134 0.72421,0.0472 0.0508,-0.0822 -0.41231,-1.04739 -1.3616,-2.83562 -0.68083,-1.28256 -0.90037,-1.76155 -0.90037,-1.96688 0,-0.0986 -0.0441,-0.22325 -0.0984,-0.27754 -0.0543,-0.0543 -0.0635,-0.0978 -0.0206,-0.0958 0.0429,0.002 0.18218,0.16769 0.30965,0.36888 0.65535,1.0343 2.38856,2.88763 3.02985,3.23964 0.74534,0.40912 0.97375,0.49986 1.25671,0.49986 0.30018,0 0.38417,-0.13909 0.2123,-0.35281 -0.26339,-0.3275 -1.82226,-2.3072 -2.09836,-2.66499 -0.18155,-0.23524 -0.50034,-0.64215 -0.70866,-0.90439 -0.47771,-0.60133 -1.47151,-2.06521 -1.47151,-2.16761 0,-0.0424 0.0205,-0.0773 0.0456,-0.0773 0.0252,0 0.47843,0.43937 1.00727,0.97667 1.5081,1.53223 2.8562,2.46224 4.00099,2.76033 0.56368,0.14674 0.85574,0.15903 1.03086,0.0437 0.14611,-0.0962 -0.12387,-0.35717 -1.72546,-1.66675 -1.02216,-0.83578 -3.10771,-2.74442 -3.5784,-3.27476 -0.79431,-0.89499 -0.9687,-1.30055 -0.33627,-0.78243 0.748,0.61278 2.49663,1.70905 3.09359,1.93926 0.9294,0.35838 2.16241,0.52593 2.46473,0.33475 0.10964,-0.0693 0.10964,-0.0911 0,-0.19423 -0.0679,-0.0638 -0.58826,-0.35581 -1.15633,-0.64892 -0.56806,-0.29311 -1.60354,-0.87654 -2.30112,-1.29636 -1.55908,-0.93834 -3.83231,-2.62826 -3.15933,-2.34879 0.94821,0.39372 1.92973,0.63349 1.92973,0.47176 0,-0.14233 -0.44458,-0.43856 -1.93274,-1.28983 -2.08697,-1.19381 -2.81295,-1.70483 -3.86448,-2.71868 -0.81885,-0.78953 -1.32168,-1.1717 -2.04566,-1.55483 -0.81364,-0.43058 -3.490517,-2.62128 -3.992966,-3.26774 -0.202281,-0.26026 -0.310783,-0.66138 -0.368375,-1.3606 -0.0439,-0.53342 -0.027,-0.64202 0.160597,-1.01228 0.115592,-0.22811 0.403105,-0.62849 0.638397,-0.88983 1.683104,-1.86941 1.660456,-1.84828 2.470247,-2.31066 0.43563,-0.24874 0.79235,-0.49793 0.79298,-0.55358 9.7e-4,-0.12185 -0.34418,-0.2205 -0.73878,-0.21079 -0.15828,0.004 -1.027726,0.0221 -1.932231,0.0407 -1.071832,0.0219 -1.707898,0.0681 -1.826335,0.13299 -0.09996,0.0548 -0.710829,0.28589 -1.357092,0.51343 -0.646263,0.22754 -1.25972,0.44913 -1.363599,0.49234 -0.250035,0.10389 -0.590526,0.0991 -0.910914,-0.0125 -0.583864,-0.20355 -1.959885,-2.18895 -3.051432,-4.40249 -0.85982,-1.74361 -1.219959,-2.31746 -1.901623,-3.03085 -0.807258,-0.84484 -1.358238,-1.76685 -2.358327,-3.94678 -0.576677,-1.25698 -0.954512,-1.95651 -1.079048,-1.99798 -0.231495,-0.0772 -0.02817,0.97333 0.353321,1.82584 0.119477,0.26699 0.204029,0.49859 0.188208,0.51442 -0.091,0.0909 -1.504665,-2.0842 -2.146539,-3.30237 -0.341492,-0.64808 -1.469595,-3.11835 -1.702371,-3.72795 -0.0808,-0.21173 -0.08731,-0.21371 -0.200756,-0.0592 -0.158305,0.21558 -0.154236,1.34926 0.0068,1.96837 0.21614,0.82979 0.811454,2.03247 1.652695,3.34001 l 0.290592,0.4522 -0.484317,-0.49335 c -1.152791,-1.17441 -2.728547,-3.31531 -3.631605,-4.93348 -0.151429,-0.27135 -0.404571,-0.68882 -0.562099,-0.92747 -0.181769,-0.27536 -0.262796,-0.37265 -0.336267,-0.36738 z"
         inkscape:connector-curvature="0" /></g></g><metadata
     id="metadata209"><rdf:RDF><cc:Work
         rdf:about=""><cc:license
           rdf:resource="http://creativecommons.org/publicdomain/zero/1.0/" /><dc:format>image/svg+xml</dc:format><dc:type
           rdf:resource="http://purl.org/dc/dcmitype/StillImage" /></cc:Work><cc:License
         rdf:about="http://creativecommons.org/publicdomain/zero/1.0/"><cc:permits
           rdf:resource="http://creativecommons.org/ns#Reproduction" /><cc:permits
           rdf:resource="http://creativecommons.org/ns#Distribution" /><cc:permits
           rdf:resource="http://creativecommons.org/ns#DerivativeWorks" /></cc:License></rdf:RDF></metadata></svg>